Coordinates
version=1
nRows=26
nColumns=27
inDegrees=yes

Units are S.I. units (second, meters, Newtons, ...)
If the header above contains a line with 'inDegrees', this indicates whether rotational values are in degrees (yes) or radians (no).

endheader
time	pelvis_rotation	pelvis_tilt	pelvis_list	pelvis_tx	pelvis_ty	pelvis_tz	hip_flexion_r	hip_adduction_r	hip_rotation_r	knee_angle_r	knee_rotation_r	knee_adduction_r	knee_angle_r_beta	ankle_angle_r	subtalar_angle_r	mtp_angle_r	hip_flexion_l	hip_adduction_l	hip_rotation_l	knee_angle_l	knee_rotation_l	knee_adduction_l	knee_angle_l_beta	ankle_angle_l	subtalar_angle_l	mtp_angle_l
      5.38000000	      8.01685675	    -33.28510940	      5.52245042	     -0.04537423	      0.63279907	     -1.14887473	    100.56051810	    -42.91040302	      5.75859228	     80.84911754	      0.00000000	      9.58188466	      1.41108330	      8.87495235	      0.00000000	      0.00000000	     97.60880752	    -26.34158181	      3.09201029	     76.65504057	      0.00000000	     -9.80827670	      1.33788285	      8.66760712	      0.00000000	      0.00000000
      5.38500000	      7.99763510	    -33.38537881	      5.49083773	     -0.04531193	      0.63483147	     -1.14896663	    100.21117788	    -42.85790591	      5.43238304	     80.49500302	      0.00000000	      9.58859362	      1.40490283	      9.18910285	      0.00000000	      0.00000000	     97.40564444	    -26.33413847	      2.93292426	     76.28827344	      0.00000000	     -9.80555088	      1.33148155	      8.57900367	      0.00000000	      0.00000000
      5.39000000	      7.75972844	    -33.22544300	      5.82847924	     -0.04498488	      0.63697124	     -1.14937063	    100.10166632	    -42.56635326	      5.80266475	     80.12374685	      0.00000000	      9.58543358	      1.39842319	      9.03691047	      0.00000000	      0.00000000	     96.54804355	    -26.58649962	      2.12896098	     75.86470087	      0.00000000	     -9.80590073	      1.32408882	      8.56060959	      0.00000000	      0.00000000
      5.39500000	      7.62396008	    -33.25788343	      5.51285833	     -0.04483364	      0.63918346	     -1.14924232	     99.35785152	    -42.39610740	      5.14143863	     79.63562704	      0.00000000	      9.24801260	      1.38990389	      8.94671642	      0.00000000	      0.00000000	     96.37544740	    -26.58291729	      2.33137632	     75.48062612	      0.00000000	     -9.63698752	      1.31738545	      8.45144190	      0.00000000	      0.00000000
      5.40000000	      8.05328796	    -33.06036842	      5.41431613	     -0.04388149	      0.64135075	     -1.14962753	     98.42865600	    -43.08194112	      4.19531356	     79.25717348	      0.00000000	      9.59023819	      1.38329863	      8.93478967	      0.00000000	      0.00000000	     96.01774552	    -26.19713594	      2.34756828	     75.13231582	      0.00000000	     -9.80189318	      1.31130629	      8.40537976	      0.00000000	      0.00000000
      5.40500000	      7.68003857	    -32.97592490	      5.85940119	     -0.04371075	      0.64327722	     -1.15005140	     98.63381956	    -42.59160280	      4.91845752	     78.93134077	      0.00000000	      9.58404773	      1.37761178	      8.70765459	      0.00000000	      0.00000000	     95.15365041	    -26.58460315	      1.35826857	     74.73026800	      0.00000000	     -9.80288558	      1.30428923	      8.38754531	      0.00000000	      0.00000000
      5.41000000	      7.34794820	    -33.02963043	      5.90152377	     -0.04373845	      0.64525676	     -1.15009169	     98.46041298	    -42.08951480	      5.06018225	     78.52185211	      0.00000000	      9.24033593	      1.37046485	      8.52425862	      0.00000000	      0.00000000	     94.71612772	    -26.81952725	      1.00166250	     74.33670763	      0.00000000	     -9.63413849	      1.29742030	      8.30310240	      0.00000000	      0.00000000
      5.41500000	      7.74854630	    -32.69937984	      5.95193842	     -0.04256788	      0.64736136	     -1.15067616	     97.57820665	    -42.76796897	      4.35070570	     78.14472085	      0.00000000	      9.58881146	      1.36388267	      8.48011959	      0.00000000	      0.00000000	     94.10362988	    -26.46448301	      0.80673389	     73.98709076	      0.00000000	     -9.80136697	      1.29131834	      8.31399312	      0.00000000	      0.00000000
      5.42000000	      7.67883324	    -32.68777837	      5.75083348	     -0.04215513	      0.64932748	     -1.15069180	     96.94810135	    -42.71739812	      3.78798035	     77.75126314	      0.00000000	      9.58648079	      1.35701554	      8.42714074	      0.00000000	      0.00000000	     93.86539800	    -26.49451713	      0.82287319	     73.65182195	      0.00000000	     -9.80136385	      1.28546679	      8.24636391	      0.00000000	      0.00000000
      5.42500000	      7.66862560	    -32.58443226	      5.84602508	     -0.04161664	      0.65124354	     -1.15101520	     96.55697235	    -42.73433913	      3.64557848	     77.39332905	      0.00000000	      9.58939498	      1.35076841	      8.31364626	      0.00000000	      0.00000000	     93.35412906	    -26.48210271	      0.47979357	     73.30186598	      0.00000000	     -9.80034670	      1.27935891	      8.19874776	      0.00000000	      0.00000000
      5.43000000	      7.68834841	    -32.48792602	      5.75149484	     -0.04103165	      0.65319078	     -1.15119534	     95.92523352	    -42.79563467	      3.17306321	     76.99931728	      0.00000000	      9.58934819	      1.34389161	      8.22205068	      0.00000000	      0.00000000	     92.98217262	    -26.43290690	      0.39578671	     72.96139728	      0.00000000	     -9.80015043	      1.27341661	      8.14500158	      0.00000000	      0.00000000
      5.43500000	      7.62651959	    -32.49389415	      5.71033258	     -0.04074620	      0.65507372	     -1.15131115	     95.50041779	    -42.63979251	      2.97897276	     76.59620240	      0.00000000	      9.26118580	      1.33685593	      8.14206971	      0.00000000	      0.00000000	     92.66528395	    -26.38400582	      0.32206559	     72.60376867	      0.00000000	     -9.62668774	      1.26717481	      8.05712679	      0.00000000	      0.00000000
      5.44000000	      7.85701023	    -32.22994834	      5.77260891	     -0.03967804	      0.65699016	     -1.15181216	     94.78333072	    -43.07424664	      2.44495829	     76.24711674	      0.00000000	      9.59600572	      1.33076323	      8.04464149	      0.00000000	      0.00000000	     92.08459001	    -26.20557892	      0.04717089	     72.27895260	      0.00000000	     -9.79763644	      1.26150570	      8.05278180	      0.00000000	      0.00000000
      5.44500000	      7.76717013	    -32.24676058	      5.59255721	     -0.03933825	      0.65885226	     -1.15181075	     94.20966561	    -42.88461174	      2.06008093	     75.82251843	      0.00000000	      9.26784362	      1.32335259	      7.93015855	      0.00000000	      0.00000000	     91.86876603	    -26.18422455	      0.13935367	     71.94820042	      0.00000000	     -9.62082535	      1.25573299	      7.95570262	      0.00000000	      0.00000000
      5.45000000	      7.94255449	    -31.99838050	      5.77357850	     -0.03831336	      0.66066624	     -1.15237205	     93.68486919	    -43.22906414	      1.77667938	     75.51103401	      0.00000000	      9.60081765	      1.31791616	      7.89052334	      0.00000000	      0.00000000	     91.21441091	    -26.06131229	     -0.30483636	     71.62301336	      0.00000000	     -9.79600646	      1.25005740	      7.97377099	      0.00000000	      0.00000000
      5.45500000	      7.81690469	    -31.94455659	      5.70672442	     -0.03771115	      0.66247821	     -1.15250151	     93.21675700	    -43.10255696	      1.50374170	     75.15298660	      0.00000000	      9.59901773	      1.31166706	      7.79367257	      0.00000000	      0.00000000	     90.82730862	    -26.15576052	     -0.49351363	     71.30231105	      0.00000000	     -9.79640623	      1.24446009	      7.93518427	      0.00000000	      0.00000000
      5.46000000	      7.73111846	    -31.82477761	      5.76598436	     -0.03704024	      0.66429179	     -1.15277469	     92.80261364	    -43.02857295	      1.38752755	     74.79440308	      0.00000000	      9.59717554	      1.30540860	      7.63571003	      0.00000000	      0.00000000	     90.28946879	    -26.20263997	     -0.82456355	     70.95934220	      0.00000000	     -9.79707498	      1.23847416	      7.91811016	      0.00000000	      0.00000000
      5.46500000	      7.22485791	    -31.86509599	      6.01307556	     -0.03695035	      0.66593247	     -1.15292999	     93.03553608	    -42.31908644	      2.14931315	     74.48297330	      0.00000000	      9.25779432	      1.29997312	      7.45951359	      0.00000000	      0.00000000	     89.66419768	    -26.57067702	     -1.51311724	     70.60344374	      0.00000000	     -9.62424557	      1.23226256	      7.85660393	      0.00000000	      0.00000000
      5.47000000	      7.75911660	    -31.45717160	      6.03856958	     -0.03533862	      0.66790953	     -1.15362161	     91.91490137	    -43.16151695	      1.18770931	     74.10701983	      0.00000000	      9.60470818	      1.29341149	      7.47270826	      0.00000000	      0.00000000	     89.05216149	    -26.08390926	     -1.55605905	     70.28151080	      0.00000000	     -9.79608727	      1.22664377	      7.89312891	      0.00000000	      0.00000000
      5.47500000	      7.70908673	    -30.89487404	      5.93945577	     -0.03391974	      0.67028217	     -1.15387257	     90.68561132	    -43.22400351	      0.65833003	     73.57563098	      0.00000000	      9.27201238	      1.28413701	      6.82638813	      0.00000000	      0.00000000	     88.01155878	    -25.96462510	     -1.63092443	     69.80429422	      0.00000000	     -9.62342705	      1.21831477	      7.86873702	      0.00000000	      0.00000000
      5.48000000	      7.75152550	    -31.28028050	      5.98115155	     -0.03381184	      0.67147047	     -1.15412768	     90.83729205	    -43.17831037	      0.53620247	     73.35938861	      0.00000000	      9.60506994	      1.28036287	      7.38446465	      0.00000000	      0.00000000	     88.25264988	    -26.00055575	     -1.83590415	     69.65258661	      0.00000000	     -9.79293972	      1.21566697	      7.82194743	      0.00000000	      0.00000000
      5.48500000	      7.25993819	    -31.40774222	      5.90870802	     -0.03366060	      0.67319789	     -1.15400410	     90.77780162	    -42.48711042	      0.79347647	     73.00867349	      0.00000000	      9.26378986	      1.27424173	      7.11096156	      0.00000000	      0.00000000	     87.93119135	    -26.36064716	     -2.11853883	     69.31573326	      0.00000000	     -9.61762822	      1.20978777	      7.70591448	      0.00000000	      0.00000000
      5.49000000	      7.63984870	    -31.06465749	      5.99499883	     -0.03214743	      0.67505039	     -1.15469547	     89.87444685	    -43.11888053	      0.07343539	     72.64867284	      0.00000000	      9.60544977	      1.26795854	      7.13669239	      0.00000000	      0.00000000	     87.30247140	    -26.01376805	     -2.30071116	     69.00731852	      0.00000000	     -9.79213060	      1.20440492	      7.75901697	      0.00000000	      0.00000000
      5.49500000	      7.49062884	    -30.96732571	      5.94576212	     -0.03136878	      0.67682533	     -1.15485250	     89.39003299	    -42.97173961	     -0.14577883	     72.29780556	      0.00000000	      9.60118982	      1.26183475	      6.99797885	      0.00000000	      0.00000000	     86.84131509	    -26.10200792	     -2.50467192	     68.68503968	      0.00000000	     -9.79179006	      1.19878009	      7.71304745	      0.00000000	      0.00000000
      5.50000000	      7.45886537	    -30.84261119	      5.99431234	     -0.03048394	      0.67858831	     -1.15518429	     88.92607638	    -42.97527735	     -0.33781411	     71.94544741	      0.00000000	      9.60158105	      1.25568494	      6.91594293	      0.00000000	      0.00000000	     86.32991496	    -26.07225200	     -2.76320284	     68.36136977	      0.00000000	     -9.79093677	      1.19313098	      7.70917093	      0.00000000	      0.00000000
      5.50500000	      7.24987372	    -30.88704778	      5.87355853	     -0.03001899	      0.68031351	     -1.15522412	     88.54323120	    -42.62586794	     -0.45701221	     71.54391701	      0.00000000	      9.27311568	      1.24867691	      6.78893485	      0.00000000	      0.00000000	     86.06264174	    -26.14945336	     -2.78882625	     68.04849636	      0.00000000	     -9.60817361	      1.18767031	      7.63036553	      0.00000000	      0.00000000
